<svg xmlns="http://www.w3.org/2000/svg" viewBox="0 0 128 128">
  <g fill="#09de0b">
    <path d="M65.489 65.303v-6.001A27.037 27.037 0 0083.2 51.389c10.608-10.598 10.608-27.791 0-38.401A27.05 27.05 0 0070.577 5.84l.24-1.095a35.277 35.277 0 0118.218 9.713c10.343 10.336 12.947 25.48 7.82 38.245C114.402 54.805 128 69.742 128 87.853a35.239 35.239 0 01-6.008 19.746l-.946-.598a27.054 27.054 0 003.865-13.988c0-14.991-12.156-27.151-27.149-27.151-9.115 0-17.186 4.494-22.11 11.387l-4.95-2.9c.237-.695.36-1.442.36-2.225a6.958 6.958 0 00-5.573-6.821zm3.813 11.463l4.843 2.846a26.997 26.997 0 00-3.534 13.403c0 14.995 12.152 27.154 27.152 27.154 5.113 0 9.901-1.412 13.986-3.872l.604.944a35.219 35.219 0 01-19.746 6.015c-11.756 0-22.169-5.72-28.6-14.532-6.445 8.812-16.856 14.532-28.604 14.532a35.272 35.272 0 01-19.746-6.015l.605-.944a26.984 26.984 0 0013.982 3.872c14.995 0 27.151-12.159 27.151-27.154 0-4.862-1.277-9.431-3.516-13.375l5.009-2.888a6.95 6.95 0 005.213 2.351 6.947 6.947 0 005.201-2.337zm-24.5-25.379a27.04 27.04 0 0017.904 7.92v5.995a6.97 6.97 0 00-5.218 9.036l-5.159 2.878c-4.934-6.871-12.991-11.351-22.087-11.351-14.997 0-27.154 12.159-27.154 27.151 0 5.115 1.414 9.903 3.871 13.988l-.942.598A35.194 35.194 0 010 87.856c0-18.109 13.602-33.048 31.149-35.15-5.129-12.765-2.521-27.909 7.82-38.245a35.282 35.282 0 0118.216-9.713l.242 1.095a27.028 27.028 0 00-12.624 7.148c-10.602 10.605-10.602 27.798-.001 38.396z"/>
    <path d="M99.504 72.126c0 15.228-9.613 28.202-23.092 33.204a24.454 24.454 0 01-3.069-8.977c9.754-3.727 16.672-13.161 16.672-24.228 0-.832-.04-1.66-.116-2.472a24.448 24.448 0 017.864-1.284c.518 0 1.035.025 1.546.049.119 1.217.195 2.456.195 3.708zM64.097 36.731a35.232 35.232 0 0121.531 7.296 25.066 25.066 0 01-4.199 5.59 26.5 26.5 0 01-1.884 1.702 25.78 25.78 0 00-15.449-5.106 25.804 25.804 0 00-15.546 5.176 24.69 24.69 0 01-1.976-1.772 24.327 24.327 0 01-4.137-5.492 35.241 35.241 0 0121.66-7.394zM38.292 69.717a24.932 24.932 0 00-.112 2.409c0 10.993 6.832 20.383 16.488 24.156a24.524 24.524 0 01-3.042 8.991c-13.4-5.043-22.931-17.978-22.931-33.146 0-1.253.063-2.497.197-3.72a24.557 24.557 0 019.4 1.31z" fill-rule="evenodd" clip-rule="evenodd"/>
  </g>
</svg>
