<svg xmlns="http://www.w3.org/2000/svg" viewBox="0 0 128 128">
  <path d="M95.545 51.869l19.731 5.293a5.293 5.293 0 102.731-10.226l-9.59-2.541 8.934-5.145a5.292 5.292 0 002.839-6.926 5.292 5.292 0 00-8.048-2.199l-8.934 5.145 2.541-9.506a5.293 5.293 0 10-10.226-2.731l-5.293 19.71-20.98 12.09V30.571l14.439-14.439a5.3 5.3 0 10-7.495-7.495l-6.944 6.965V5.293a5.292 5.292 0 10-10.585 0v10.31l-6.944-6.944a5.3 5.3 0 10-7.495 7.495l14.439 14.439v24.241L37.663 42.702l-5.293-19.71a5.293 5.293 0 10-10.226 2.731l2.541 9.506-8.913-5.102a5.293 5.293 0 00-5.293 9.166l9.019 5.102-9.506 2.541a5.293 5.293 0 102.731 10.226l19.731-5.293L53.372 64 32.37 76.131l-19.731-5.293a5.293 5.293 0 00-2.731 10.226l9.59 2.541-8.934 5.145a5.292 5.292 0 00-2.839 6.926 5.292 5.292 0 008.048 2.199l8.934-5.145-2.541 9.506a5.293 5.293 0 1010.226 2.731l5.293-19.731 21.002-12.131v24.304l-14.46 14.439a5.3 5.3 0 107.495 7.495l6.944-6.944v10.31a5.293 5.293 0 0010.586 0v-10.331l6.944 6.944a5.3 5.3 0 107.495-7.495L69.25 97.408V73.167l21.002 12.131 5.293 19.731a5.293 5.293 0 0010.226-2.731l-2.541-9.506 8.913 5.081a5.293 5.293 0 005.353-9.133l-.06-.035-9.019-5.102 9.506-2.541a5.293 5.293 0 00-2.731-10.226L95.46 76.131 74.543 64l21.002-12.131z" fill="#16f2f2"/>
</svg>
