<svg xmlns="http://www.w3.org/2000/svg" xml:space="preserve" viewBox="0 0 64 64"><path fill="#FF40A4" d="M12.34 43.03a3.42 3.42 0 0 1-3.56-3.55A3.4 3.4 0 0 1 10 37.02L37.15 9.95a3.43 3.43 0 0 1 5.45 1.63c.33 1.1.09 2.28-.65 3.16l-2.37 2.37-5.13 5.12a.87.87 0 0 0 0 1.23c-3.8 2.62-5.89 4.1-7.18 5.1a.46.46 0 0 0-.06.68c.16.18.43.23.64.12 1.54-.73 3.96-2.02 8.18-4.32l18.8 18.7a3.45 3.45 0 0 1 0 4.82c-.65.65-1.53.98-2.42.98a3.4 3.4 0 0 1-2.4-.97l-10-9.96a.87.87 0 0 0-1.26 1.2l.03.03 9.98 9.96a3.39 3.39 0 0 1-2.34 6 3.42 3.42 0 0 1-2.47-1.21L23.57 34.3a.88.88 0 0 0-1.24 0l-7.52 7.5a3.42 3.42 0 0 1-2.47 1.22v.01z"/><path fill="#FF40A4" d="M17.18 8.2a8.94 8.94 0 0 0-6.34 15.29 9.03 9.03 0 0 0 8.67 2.32v.01a8.93 8.93 0 0 0 4.03-15 9 9 0 0 0-6.36-2.62zm-.32 12.35v-.01h-1.64v1.64c0 .46-.36.7-.72.7-.35 0-.7-.24-.7-.7v-1.64h-1.65c-.92 0-.92-1.4 0-1.4h1.65v-1.65c.01-.92 1.42-.92 1.42 0v1.65h1.64c.93 0 .93 1.41 0 1.41zm5.37-5.36h-1.64v1.65c0 .91-1.41.91-1.42 0v-1.65h-1.64c-.94 0-.94-1.41 0-1.41h1.65l.01.01v-1.65c0-.91 1.41-.91 1.41 0v1.65h1.63c.93 0 .93 1.4 0 1.4zm24.43 1.09c-5.62 3.7-11.21 7.46-16.76 11.26 5.15-2.8 15.25-8.59 17.6-9.93a2 2 0 0 1-.84-1.33z"/><circle cx="48.62" cy="15.96" r="1.5" fill="#FF40A4"/></svg>