<svg xmlns="http://www.w3.org/2000/svg" viewBox="0 0 128 128">
  <path d="M112.744 51.806L89.175 70.169l11.906 11.3-14.771 4.722 17.892 41.811-34.547-25.157-8.785 14.166-7.318-15.296-24.914 23.61 7.103-37.748-17.892-4.305 12.35-11.341-14.946-12.39 18.578-5.825L26.365 22.6l22.601 15.215L64.301-.001l6.673 40.937 16.412-10.507-3 21.376h28.358zM70.086 78.752l7.991-2.556-7.264-6.901 7.022-5.475h-7.184l1.278-9.229-9.82 6.269-2.717-16.735-4.83 11.906-9.39-6.269 2.96 12.067-8.233 2.596 8.502 7.063-5.865 5.395 7.103 1.708-2.395 12.592 10.063-9.471 4.924 10.305 4.022-6.511 9.753 7.103-5.92-13.857z" fill="#dcdb0d"/>
</svg>
