<svg xmlns="http://www.w3.org/2000/svg" xml:space="preserve" viewBox="0 0 64 64"><path fill="#27df0c" d="M18.35 25.07c-.34.69-.34 5.32 1.29 5.58 3.34.6 5.15 2.49 5.75 4.9.34 1.54 4.55 1.8 6.6 1.8s6.27-.26 6.62-1.8c.6-2.41 2.4-4.38 5.75-4.9 1.63-.26 1.63-4.9 1.28-5.58-.34-.69-.77-.43-.94-1.2-.17-.69.51-2.92.86-5.4C47.7 2.4 32 2.5 32 2.5s-15.71-.09-13.56 15.96c.34 2.5 1.03 4.72.85 5.41-.17.69-.68.52-.94 1.2zm16.22-5.58c.69-2.57 8.75-1.03 7.64 3.1 0 0-1.63 3.51-5.15 2.05-3.43-1.46-3.18-2.49-2.49-5.15zM32 24.3c.94 0 1.46 1.37 2.14 4.63.78 3.27-.94 2.84-2.14 2.84-1.2 0-2.92.43-2.15-2.83.69-3.27 1.2-4.64 2.15-4.64zm-2.58-4.8c.69 2.57.95 3.68-2.49 5.14-3.52 1.46-5.15-2.06-5.15-2.06-1.2-4.03 6.87-5.66 7.64-3.09z"/><path fill="#27df0c" d="M49.6 53.91c.68-1.72 2.65-1.97 0-4.63-1.04-1.04-3.79 1.11-5.24.51-.26-.09-2.58-.94-5.41-2.06 3.09-1.2 5.66-2.15 5.83-2.23 1.8-.69 4.64.69 5.58-1.29 1.46-3-.25-1.97-.94-3.69s.69-3.26-3.09-3.52c-1.46-.08-2.06 3.35-3.52 3.95-.34.17-6.1 2.32-10.81 4.12-4.72-1.8-10.47-4.03-10.82-4.12-1.46-.6-2.06-4.03-3.52-3.95-3.69.26-2.4 1.72-3.09 3.52-.68 1.72-2.4.69-.94 3.7.94 1.88 3.78.6 5.58 1.28.26.08 2.83 1.11 5.84 2.23-2.84 1.12-5.24 1.97-5.41 2.06-1.46.6-4.2-1.63-5.24-.52-2.66 2.67-.6 2.92 0 4.64.69 1.72-1.28 2.06 1.72 3.43 1.97.86 3.18-2.06 4.98-2.74.34-.18 6.18-2.32 10.81-4.12 4.72 1.8 10.47 4.03 10.82 4.12 1.8.68 3 3.6 4.97 2.74 3.18-1.37 1.2-1.71 1.9-3.43z"/></svg>