<svg xmlns="http://www.w3.org/2000/svg" viewBox="0 0 128 128">
  <path d="M88.6 106.77L71.05 77.02c-3.13 3.2-12.06 3.1-15.25 0l-16.42 29.73a49.79 49.79 0 0049.22.02zm-69.93 2.56c-24.9-24.9-24.9-65.76 0-90.66 24.9-24.9 65.76-24.9 90.66 0 24.9 24.9 24.9 65.76 0 90.66-24.9 24.9-65.76 24.9-90.66 0zM64 73.98a9.99 9.99 0 100-19.97 9.99 9.99 0 000 19.97zm-39.14 29.16c-21.5-21.5-21.5-56.78 0-78.28s56.78-21.5 78.28 0 21.5 56.78 0 78.28-56.78 21.5-78.28 0zm63.03-82.3l-16.84 29.5c5.44 1.73 8.88 8.66 8.15 13.63h34.07a49.1 49.1 0 00-25.38-43.13zm-48.66.5a49.09 49.09 0 00-24.5 42.63h33.5c.63-5.41 2.64-9.8 7.57-13.64l-16.57-29z" fill-rule="evenodd" clip-rule="evenodd" fill="#ebf21b"/>
</svg>
