<svg xmlns="http://www.w3.org/2000/svg" viewBox="0 0 256 256"><path fill="#b800dc" d="M228.8 123c-2.8 11.9-11.3 21.8-16.3 33-5.7 12-.5 23.7 7 33.8-9.1 7.6-19 15-28.2 22.7-.5-.1.6.2 0 0-3.2-14.3 1-29.6-6.4-43 15.6-34.2 35.1-46.8 31-90 6.6 8 11.3 16 12.9 25 1 6.1 1.4 12.5 0 18.4zM26.9 45.7c1.6-12.3 9-26.8 20-30.8A86.4 86.4 0 0 0 42.4 61c1 7.3 11.7 3.6 17.8 5.2a64.2 64.2 0 0 0-11 42.3c-8-9-7-18.5-5.6-28.3C33.4 78.5 28.2 75.4 27 65a83 83 0 0 1 0-19.3zM139.8 256c.4-16.7-1.5-32.9-11.6-47.2 20.8-3.2 39 17 38.7 42.2l-14.6-15c-.4.1.4-.3 0 0-.6 7.5-6.9 14.9-12.5 20-1 0 .9 0 0 0z"/><path fill="#b800dc" d="M158.3 5c39 35.9 51.9 95.6 30.1 143.8-4.4 8.9-9.1 18.3-21.2 14.5-12-3.3-31.8 5-20.5 19.5 8.8 11.6 25.1 4 35.3-2.8a37.3 37.3 0 0 1-8.6 39c-21.7-18.3-59.7-12.8-48.4-51.5 10.2-26.4 31.7-47.4 36.7-76.2 6.9-29 4.8-57.9-3.4-86.3zM78.2 237a44 44 0 0 1 5.3-25c4.8-11.5 30.3-45 8.2-50a171.4 171.4 0 0 0-37-2.3C38.8 45.7 87.2 73.5 71.3 0 89 11.4 91.7 34 89.8 53.2c-.7 29.7-19 75 19.6 87.5 5.3 1.8 7.5 4.9 7.3 10.4-.8 17.9 1.8 37.6-11 52.1-9 11.3-18.3 22.4-27.5 33.8z"/><path fill="#b800dc" d="M93.8 105.5c-11-27.3 19.7-85.9 49.2-90.7-10.9 19.7-25.8 37.8-28 60.9 0 12.5 31.9 1.2 38.5-1.6 3.1 18.6-16.2 65-25.3 66.8 10.3-37 2.9-44.3-34.4-35.4zM40 107.2c1.6 17 3.9 34.7 9.8 50.9 7 19.2 23.1 26.5 43 25.3L71.7 227c-4-7-5.4-19-12-24.3C19.5 190.1 30.4 138 40 107.2c.4 0-.5 0 0 0zm54.7 148.3c-9.4-20.4 1.8-33.7 14.6-48 1.7 18.6-5.7 33-14.6 48z"/></svg>